<svg width="18" height="18" viewBox="0 0 18 18" fill="none" xmlns="http://www.w3.org/2000/svg">
  <path fill-rule="evenodd" clip-rule="evenodd" d="M0.25 5C0.25 2.377 2.38 0.25 5 0.25H13C15.62 0.25 17.75 2.377 17.75 5V13C17.75 15.623 15.62 17.75 13 17.75H5C2.38 17.75 0.25 15.623 0.25 13V5ZM5 1.75C3.21 1.75 1.75 3.205 1.75 5V13C1.75 14.795 3.21 16.25 5 16.25H13C14.79 16.25 16.25 14.795 16.25 13V5C16.25 3.205 14.79 1.75 13 1.75H5ZM9 6.75C7.76 6.75 6.75 7.757 6.75 9C6.75 10.243 7.76 11.25 9 11.25C10.24 11.25 11.25 10.243 11.25 9C11.25 7.757 10.24 6.75 9 6.75ZM5.25 9C5.25 6.929 6.93 5.25 9 5.25C11.07 5.25 12.75 6.929 12.75 9C12.75 11.071 11.07 12.75 9 12.75C6.93 12.75 5.25 11.071 5.25 9ZM13.25 6C13.94 6 14.5 5.44 14.5 4.75C14.5 4.06 13.94 3.5 13.25 3.5C12.56 3.5 12 4.06 12 4.75C12 5.44 12.56 6 13.25 6Z" fill="currentColor"/>
</svg>