<svg width="18" height="18" viewBox="0 0 18 18" fill="none" xmlns="http://www.w3.org/2000/svg">
  <path fill-rule="evenodd" clip-rule="evenodd" d="M9.1 2.863C8.46 2.341 7.54 2.341 6.9 2.863L1.4 7.332C0.99 7.664 0.75 8.163 0.75 8.69V14.5C0.75 15.467 1.53 16.25 2.5 16.25H4.75V11.5C4.75 9.705 6.21 8.25 8 8.25C9.79 8.25 11.25 9.705 11.25 11.5V16.25H13.5C14.47 16.25 15.25 15.467 15.25 14.5V8.69C15.25 8.163 15.01 7.664 14.6 7.332L9.1 2.863ZM9.75 16.25V11.5C9.75 10.534 8.97 9.75 8 9.75C7.03 9.75 6.25 10.534 6.25 11.5V16.25H9.75ZM5.95 1.699C7.14 0.729 8.86 0.729 10.05 1.699L15.55 6.168C16.31 6.785 16.75 7.711 16.75 8.69V14.5C16.75 16.295 15.29 17.75 13.5 17.75H2.5C0.71 17.75 -0.75 16.295 -0.75 14.5V8.69C-0.75 7.711 -0.31 6.785 0.45 6.168L5.95 1.699Z" fill="currentColor"/>
</svg>