<svg width="18" height="18" viewBox="0 0 18 18" fill="none" xmlns="http://www.w3.org/2000/svg">
  <path fill-rule="evenodd" clip-rule="evenodd" d="M5 0.25C2.38 0.25 0.25 2.377 0.25 5V13C0.25 15.623 2.38 17.75 5 17.75H13C15.62 17.75 17.75 15.623 17.75 13V5C17.75 2.377 15.62 0.25 13 0.25H5ZM1.75 5C1.75 3.205 3.21 1.75 5 1.75H13C14.79 1.75 16.25 3.205 16.25 5V13C16.25 14.795 14.79 16.25 13 16.25H5C3.21 16.25 1.75 14.795 1.75 13V5ZM6.53 5.47C6.32 5.255 5.99 5.191 5.71 5.307C5.43 5.423 5.25 5.697 5.25 6V12C5.25 12.414 5.59 12.75 6 12.75C6.41 12.75 6.75 12.414 6.75 12V7.811L11.47 12.53C11.68 12.745 12.01 12.809 12.29 12.693C12.57 12.577 12.75 12.303 12.75 12V6C12.75 5.586 12.41 5.25 12 5.25C11.59 5.25 11.25 5.586 11.25 6V10.189L6.53 5.47Z" fill="currentColor"/>
</svg>