<svg width="20" height="18" viewBox="0 0 20 18" fill="none" xmlns="http://www.w3.org/2000/svg">
  <path d="M13 0.25C15.62 0.25 17.75 2.377 17.75 5V13C17.75 15.623 15.62 17.75 13 17.75H5C2.38 17.75 0.25 15.623 0.25 13V5C0.25 2.377 2.38 0.25 5 0.25H13ZM5 1.75C3.21 1.75 1.75 3.205 1.75 5V13C1.75 14.795 3.21 16.25 5 16.25H13C14.79 16.25 16.25 14.795 16.25 13V5C16.25 3.205 14.79 1.75 13 1.75H5ZM7.14 5.844C7.38 5.712 7.67 5.72 7.9 5.864L11.9 8.364C12.12 8.501 12.25 8.741 12.25 9C12.25 9.259 12.12 9.499 11.9 9.636L7.9 12.136C7.67 12.28 7.38 12.288 7.14 12.156C6.9 12.024 6.75 11.773 6.75 11.5V6.5C6.75 6.227 6.9 5.976 7.14 5.844ZM8.25 10.146L10.08 9L8.25 7.854V10.146Z" fill="currentColor"/>
</svg>