<svg width="18" height="18" viewBox="0 0 18 18" fill="none" xmlns="http://www.w3.org/2000/svg">
  <path fill-rule="evenodd" clip-rule="evenodd" d="M9 0.25C4.17 0.25 0.25 4.168 0.25 9C0.25 13.832 4.17 17.75 9 17.75H15C16.52 17.75 17.75 16.519 17.75 15V9C17.75 4.168 13.83 0.25 9 0.25ZM1.75 9C1.75 4.996 5 1.75 9 1.75C13 1.75 16.25 4.996 16.25 9V15C16.25 15.06 16.25 15.119 16.24 15.177L11.25 10.189V6.5C11.25 6.086 10.91 5.75 10.5 5.75C10.09 5.75 9.75 6.086 9.75 6.5V8.689L7.78 6.72C7.49 6.427 7.01 6.427 6.72 6.72C6.43 7.013 6.43 7.487 6.72 7.78L11.19 12.25H9C8.59 12.25 8.25 12.586 8.25 13C8.25 13.414 8.59 13.75 9 13.75H12.69L15.18 16.238C15.12 16.246 15.06 16.25 15 16.25H9C5 16.25 1.75 13.004 1.75 9Z" fill="currentColor"/>
</svg>